<?xml version="1.0" encoding="utf-8"?>
<!-- Generator: Adobe Illustrator 16.0.0, SVG Export Plug-In . SVG Version: 6.00 Build 0)  -->
<!DOCTYPE svg PUBLIC "-//W3C//DTD SVG 1.1//EN" "http://www.w3.org/Graphics/SVG/1.1/DTD/svg11.dtd">
<svg version="1.1" id="Layer_1" xmlns="http://www.w3.org/2000/svg" xmlns:xlink="http://www.w3.org/1999/xlink" x="0px" y="0px"
	 width="512.399px" height="679.336px" viewBox="0 0 512.399 679.336" enable-background="new 0 0 512.399 679.336"
	 xml:space="preserve">
<g>
	<g>
		<path fill="#F1F2F2" d="M248.335,350.606l33.039,57.775c0,0,3.008-4.521,3.912-1.738c0.906,2.783,3.373-1.771,3.373-1.771
			l42.189-30.969l9.418,13.848l-42.928,32.176c0,0-5.746,6.686-7.299,5.496c-1.551-1.186-7.139,3.785-9.224,2.432
			c-2.083-1.354-6.011-2.967-8.669-5.855c-2.659-2.889-23.227-36.926-23.227-36.926S246.247,359.804,248.335,350.606z"/>
		
			<linearGradient id="SVGID_1_" gradientUnits="userSpaceOnUse" x1="-1736.5171" y1="632.5718" x2="-1698.6493" y2="608.5403" gradientTransform="matrix(-0.9979 -0.0647 0.0647 -0.9979 -1413.3635 876.4274)">
			<stop  offset="0" style="stop-color:#FFEFD8"/>
			<stop  offset="0.4002" style="stop-color:#FFD2A5"/>
			<stop  offset="1" style="stop-color:#FFA85C"/>
		</linearGradient>
		<path fill="url(#SVGID_1_)" d="M340.227,363.681c0-0.002,0-0.005,0-0.005c-1.119-5.811,0.029-11.19,3.137-14.198
			c1.514-3.294,3.646-2.847,6.887-5.34c6.775-5.216,12.617-5.205,13.145-1.087c0.33,2.585-1.742,4.06-6.764,6.359
			c2.502-1.213,6.211-2.912,8.654,2.324c4.305,9.234,7.936,13.436,1.65,20.316c-2.605,2.854-13.338,9.959-17.137,7.224
			c-2.57-0.026-4.406,0.573-11.434,5.628l-5.125-7.326C333.241,377.577,339.762,373.551,340.227,363.681z"/>
	</g>
</g>
<linearGradient id="SVGID_2_" gradientUnits="userSpaceOnUse" x1="269.3892" y1="170.3726" x2="269.3892" y2="186.7082" gradientTransform="matrix(1 0 0 -1 -56 534.3369)">
	<stop  offset="0" style="stop-color:#FFEFD8"/>
	<stop  offset="0.1712" style="stop-color:#FFE6C9"/>
	<stop  offset="0.4999" style="stop-color:#FFD0A2"/>
	<stop  offset="0.9493" style="stop-color:#FFAC64"/>
	<stop  offset="1" style="stop-color:#FFA85C"/>
</linearGradient>
<rect x="196.088" y="347.853" fill="url(#SVGID_2_)" width="34.603" height="12.515"/>
<radialGradient id="SVGID_3_" cx="-8.5313" cy="-467.6973" r="57.4512" gradientTransform="matrix(0.9847 -0.1744 -0.1683 -0.9502 -6.2394 -195.3064)" gradientUnits="userSpaceOnUse">
	<stop  offset="0" style="stop-color:#FFEFD8"/>
	<stop  offset="0.1536" style="stop-color:#FFECD3"/>
	<stop  offset="0.3432" style="stop-color:#FFE3C4"/>
	<stop  offset="0.5517" style="stop-color:#FFD5AB"/>
	<stop  offset="0.7737" style="stop-color:#FFC188"/>
	<stop  offset="1" style="stop-color:#FFA85C"/>
</radialGradient>
<path fill="url(#SVGID_3_)" d="M89.561,244.305c3.492,19.715-7.094,38.073-23.644,41.005c-16.552,2.932-32.799-10.674-36.291-30.389
	c-3.492-19.714,7.093-38.073,23.645-41.005C69.821,210.984,86.067,224.591,89.561,244.305z"/>
<radialGradient id="SVGID_4_" cx="-3814.3003" cy="227.0464" r="54.9913" gradientTransform="matrix(-0.9847 -0.1744 0.1683 -0.9502 -3436.7158 -195.3064)" gradientUnits="userSpaceOnUse">
	<stop  offset="0" style="stop-color:#FFEFD8"/>
	<stop  offset="0.1536" style="stop-color:#FFECD3"/>
	<stop  offset="0.3432" style="stop-color:#FFE3C4"/>
	<stop  offset="0.5517" style="stop-color:#FFD5AB"/>
	<stop  offset="0.7737" style="stop-color:#FFC188"/>
	<stop  offset="1" style="stop-color:#FFA85C"/>
</radialGradient>
<path fill="url(#SVGID_4_)" d="M336.229,245.2c-3.492,19.715,7.094,38.073,23.645,41.005s32.799-10.674,36.291-30.389
	s-7.094-38.073-23.646-41.005C355.967,211.879,339.721,225.485,336.229,245.2z"/>
<radialGradient id="SVGID_5_" cx="270.3052" cy="-5550.9214" r="155.2216" gradientTransform="matrix(1 0 0 -0.6014 -56 -3067.5864)" gradientUnits="userSpaceOnUse">
	<stop  offset="0" style="stop-color:#FFEFD8"/>
	<stop  offset="0.3679" style="stop-color:#FFEED6"/>
	<stop  offset="0.5318" style="stop-color:#FFEACF"/>
	<stop  offset="0.6551" style="stop-color:#FFE2C2"/>
	<stop  offset="0.7582" style="stop-color:#FFD8B0"/>
	<stop  offset="0.8487" style="stop-color:#FFCB99"/>
	<stop  offset="0.9289" style="stop-color:#FFBA7C"/>
	<stop  offset="1" style="stop-color:#FFA85C"/>
</radialGradient>
<path fill="url(#SVGID_5_)" d="M349.34,278.772c8.713-15.892,7.188-55.026,7.188-55.026c-3.99,9.889-12.012,19.646-12.012,19.646
	c7.734-17.109-7.512-38.306-7.512-38.306c0.246,23.326,7.244,41.494,7.244,41.494c-91.482-27.257-84.47-83.15-84.47-83.15
	c-13.655,44.931,15.894,65.473,15.894,65.473c-31.771-7.988-48.628-25.331-57.499-40.162c1.418,12.997,7.187,27.872,24.289,36.479
	c0,0-94.459-11.785-108.113-56.717c0,0-15.809,27.424,0,45.016c0,0-40.457-2.207-50.258-18.087c0,0-7.734,30.851,0,47.96
	c0,0-8.021-9.757-12.01-19.646c0,0-0.415,10.659,0.426,23.108c0.428,2.572,0.713,5.059,0.813,7.398
	c0.054,1.261,0.156,2.556,0.305,3.878c0.271,1.989,0.584,3.957,0.945,5.872c7.414,35.666,47.463,86.217,140.473,86.431
	c78.479-0.181,121.369-40.511,137.414-73.557C350.497,278.233,349.34,278.772,349.34,278.772z"/>
<g>
	<path fill="#231F20" d="M283.891,302.349c-25.535,14.784-73.221,13.491-73.221,13.491c-56.686,0-67.831-13.491-67.831-13.491
		l-2.75,2.222c0,0,7.501,12.077,70.259,12.077c0,0,51.57,0.485,76.699-12.633L283.891,302.349z"/>
</g>
<path d="M116.604,264.994c0,0,19.611-20.132,39.776,0l6.628,8.042c0,0-28.523-16.035-53.587,0L116.604,264.994z"/>
<path d="M265.762,264.994c0,0,19.611-20.132,39.775,0l6.629,8.042c0,0-28.523-16.035-53.586,0L265.762,264.994z"/>
<path d="M219.85,0.088v-0.01c-1.904-0.057-3.808-0.08-5.709-0.078c-1.902-0.002-3.806,0.021-5.71,0.078v0.01
	C112.963,3.041,24.48,60.935,28.808,157.738c4.743,106.153,50.296,121.034,50.296,121.034c-8.712-15.892-7.185-55.026-7.185-55.026
	c3.989,9.889,12.009,19.646,12.009,19.646c-7.734-17.109,0-47.96,0-47.96c9.801,15.88,50.259,18.087,50.259,18.087
	c-15.81-17.592,0-45.016,0-45.016c13.654,44.932,108.112,56.717,108.112,56.717c-17.104-8.607-22.87-23.482-24.289-36.479
	c8.87,14.831,25.729,32.174,57.499,40.162c0,0-29.547-20.542-15.893-65.473c0,0-7.015,55.894,84.469,83.15
	c0,0-6.998-18.168-7.244-41.494c0,0,15.248,21.196,7.512,38.306c0,0,8.021-9.757,12.012-19.646c0,0,1.525,39.135-7.188,55.026
	c0,0,52.775-20.247,50.146-126.474C396.831,51.66,315.319,3.041,219.85,0.088z"/>
<linearGradient id="SVGID_6_" gradientUnits="userSpaceOnUse" x1="227.2314" y1="-115.5679" x2="227.2314" y2="-172.4689" gradientTransform="matrix(1 0 0 -1 -56 534.3369)">
	<stop  offset="0" style="stop-color:#231F20"/>
	<stop  offset="0.0473" style="stop-color:#454142"/>
	<stop  offset="0.1247" style="stop-color:#767374"/>
	<stop  offset="0.2039" style="stop-color:#A09E9F"/>
	<stop  offset="0.2836" style="stop-color:#C2C1C1"/>
	<stop  offset="0.3639" style="stop-color:#DDDCDC"/>
	<stop  offset="0.445" style="stop-color:#F0F0F0"/>
	<stop  offset="0.5275" style="stop-color:#FBFBFB"/>
	<stop  offset="0.6136" style="stop-color:#FFFFFF"/>
</linearGradient>
<polygon display="none" fill="url(#SVGID_6_)" points="221.497,679.336 120.966,679.336 143.106,655.418 204.594,655.418 "/>
<linearGradient id="SVGID_7_" gradientUnits="userSpaceOnUse" x1="302.3628" y1="-115.5679" x2="302.3628" y2="-172.4689" gradientTransform="matrix(1 0 0 -1 -56 534.3369)">
	<stop  offset="0" style="stop-color:#231F20"/>
	<stop  offset="0.0473" style="stop-color:#454142"/>
	<stop  offset="0.1247" style="stop-color:#767374"/>
	<stop  offset="0.2039" style="stop-color:#A09E9F"/>
	<stop  offset="0.2836" style="stop-color:#C2C1C1"/>
	<stop  offset="0.3639" style="stop-color:#DDDCDC"/>
	<stop  offset="0.445" style="stop-color:#F0F0F0"/>
	<stop  offset="0.5275" style="stop-color:#FBFBFB"/>
	<stop  offset="0.6136" style="stop-color:#FFFFFF"/>
</linearGradient>
<polygon display="none" fill="url(#SVGID_7_)" points="296.629,679.336 196.096,679.336 218.238,655.418 279.725,655.418 "/>
<path fill="#414042" d="M267.305,616.342c0,0-1.653-68.268-0.713-98.658c0.375-12.162-0.741-21.031-0.793-31.238
	c-0.158-1.563-0.377-3.16-0.403-3.961c-0.155,0.037-0.722,0.109-0.918,0.154c-0.004-0.094,0.002,0.096,0,0
	c-1.718,0.451-0.819,0.217-2.423,0.635c-16.395,3.15-57.441,9.918-100.022-1.307c-0.374,11.254-1.734,21.17-1.317,34.691
	c0.946,30.668-3.191,99.684-3.191,99.684s-8.52,12.891-8.52,17.967c0,0,12.203-9.494,17.727-9.494
	c5.525,0,21.361-5.156,30.937,4.785c9.575,9.945,8.655,7.367,8.655,7.367s-0.091-10.768-5.92-16.236c0,0,4.172-4.92,0-8.234
	c0,0-4.991-3.867-4.307-18.781c0.687-14.916,0.275-69.787,4.349-82.678c0,0,1.688-2.496,3.47-6.172
	c2.623,0.119,5.307,0.191,8.021,0.199v0.004c0.069,0,0.139-0.002,0.209-0.002s0.139,0.002,0.209,0.002v-0.004c0.02,0,0.04,0,0.061,0
	c0.02,0,0.039,0,0.061,0v0.004c0.069,0,0.139-0.002,0.209-0.002s0.139,0.002,0.209,0.002v-0.004c2.714-0.008,5.397-0.08,8.02-0.199
	c1.781,3.676,3.473,6.172,3.473,6.172c4.071,12.891,3.66,67.762,4.346,82.678c0.686,14.914-4.305,18.781-4.305,18.781
	c-4.174,3.314,0,8.234,0,8.234c-5.831,5.471-5.92,16.236-5.92,16.236s-0.921,2.578,8.654-7.367
	c9.576-9.941,25.412-4.785,30.937-4.785c5.525,0,17.727,9.494,17.727,9.494C275.823,629.233,267.305,616.342,267.305,616.342z"/>
<g>
	<g>
		<path fill="#F1F2F2" d="M263.446,467.35c-10.741-47.467-15.216-116.916-15.216-116.916l-16.006,1.125l-19.037,8.824l-17.438-9.108
			l-17.606-0.841c0,0-5.371,69.449-16.111,116.916C162.032,467.35,185.175,482.985,263.446,467.35z"/>
	</g>
	<polygon fill="#231F20" points="210.723,359.165 206.609,366.643 213.057,374.008 219.867,366.586 215.687,359.165 
		213.057,360.383 	"/>
	<path fill="#231F20" d="M215.076,371.659l-1.97,2.236l-1.968-2.236c0,0-10.346,68.344-9.564,74.088
		c0.692,5.078,9.334,11.023,11.327,12.332v0.268c0,0,0.077-0.047,0.205-0.133c0.131,0.086,0.207,0.133,0.207,0.133v-0.268
		c1.992-1.309,10.634-7.254,11.326-12.332C225.423,440.002,215.076,371.659,215.076,371.659z"/>
	<path fill="#231F20" d="M196.066,349.795c0,0-1.458-0.433-2.317,1.345c-0.913,1.886,7.09,10.438,11.601,13.754
		c0,0,2.596-7.247,3.553-6.748l1.064,0.558L196.066,349.795z"/>
	<path fill="#231F20" d="M230.438,349.795c0,0,1.459-0.433,2.316,1.345c0.914,1.886-7.088,10.438-11.601,13.754
		c0,0-2.596-7.247-3.552-6.748l-1.063,0.558L230.438,349.795z"/>
</g>
<path d="M162.032,467.35c0,0,23.235,15.637,101.505,0c0,0,0.494,5.652,1.857,15.135c0,0-50.009,13.506-103.363-0.518
	C162.032,481.967,162.529,474.299,162.032,467.35z"/>
<g>
	<path fill="#A7A9AC" d="M218.653,489.245H207.01c-3.634,0-6.607-2.975-6.607-6.607v-4.463c0-3.635,2.974-6.607,6.607-6.607h11.644
		c3.634,0,6.607,2.975,6.607,6.607v4.463C225.261,486.272,222.287,489.245,218.653,489.245z"/>
	<path d="M215.719,487.065h-5.516c-3.633,0-6.606-2.975-6.606-6.607v-0.105c0-3.633,2.974-6.605,6.606-6.605h5.516
		c3.634,0,6.607,2.973,6.607,6.605v0.105C222.326,484.092,219.353,487.065,215.719,487.065z"/>
</g>
<path d="M142.293,650.079c2.777-16.037,15.522-29.35,34.671-29.35c19.147,0,34.67,13.139,34.67,29.35c0,0-0.243,8.957-16.433,8.957
	s-41.447,0-41.447,0S140.828,658.54,142.293,650.079z"/>
<ellipse fill="#414042" cx="176.906" cy="630.626" rx="17.887" ry="9.897"/>
<g>
	<path d="M211.75,650.079c2.777-16.037,15.522-29.35,34.67-29.35s34.672,13.139,34.672,29.35c0,0-0.245,8.957-16.436,8.957
		c-16.19,0-41.446,0-41.446,0S210.285,658.54,211.75,650.079z"/>
	<ellipse fill="#414042" cx="246.363" cy="630.626" rx="17.888" ry="9.897"/>
</g>
<path fill="#603913" d="M506.875,212.479L349.299,355.877c-1.344,1.223-1.441,3.322-0.219,4.666l0,0
	c1.223,1.345,3.322,1.442,4.666,0.221l157.576-143.398c1.344-1.222,1.441-3.322,0.221-4.666l0,0
	C510.321,211.355,508.219,211.257,506.875,212.479z"/>
<path fill="#E6E7E8" d="M249.824,357.321c0,0,3.439,25.535,1.803,32.026l-3.33-37.938
	C248.297,351.411,249.52,354.934,249.824,357.321z"/>
<g>
	<path fill="#3D3332" d="M166.249,400.458c0,0,0.44-3.291,3.516-2.959c3.077,0.334,42.22,4.568,42.22,4.568l-5.588,51.654
		l-45.378-4.906L166.249,400.458z"/>
	
		<rect x="165.497" y="400.207" transform="matrix(-0.9942 -0.1075 0.1075 -0.9942 327.558 869.4207)" fill="#58595B" width="43.426" height="51.35"/>
	
		<rect x="165.069" y="400.567" transform="matrix(-0.9942 -0.1075 0.1075 -0.9942 326.6657 870.095)" fill="#808285" width="43.427" height="51.354"/>
	
		<rect x="164.467" y="401.063" transform="matrix(-0.9942 -0.1076 0.1076 -0.9942 325.3492 871.035)" fill="#A7A9AC" width="43.426" height="51.349"/>
	
		<rect x="164.016" y="401.537" transform="matrix(-0.9942 -0.1075 0.1075 -0.9942 324.458 871.9163)" fill="#D1D3D4" width="43.425" height="51.352"/>
	
		<rect x="163.4" y="402.121" transform="matrix(-0.9942 -0.1076 0.1076 -0.9942 323.1332 873.0261)" fill="#F1F2F2" width="43.428" height="51.353"/>
	
		<rect x="163.345" y="402.652" transform="matrix(-0.9942 -0.1076 0.1076 -0.9942 322.9625 874.0782)" fill="#594A42" width="43.426" height="51.351"/>
</g>
<g>
	<g>
		<path fill="#F1F2F2" d="M178.144,350.434l-1.271,22.995l-18.221,38.444c0,0,5.423-0.293,3.732,2.098
			c-1.69,2.391,3.438,1.646,3.438,1.646l46.917,14.359l-2.348,16.783l-51.453-15.186c0,0-8.792-0.613-8.769-2.568
			c0.023-1.953-7.301-3.461-7.462-5.941c-0.16-2.479-1.214-6.594-0.486-10.451c0.729-3.857,25.512-55.291,25.512-55.291
			S171.256,350.606,178.144,350.434z"/>
	</g>
</g>
<path fill="#E6E7E8" d="M177.874,351.411c0,0,0.973,6.695-1.904,22.598c0,0,0.337-9.039,0.832-13.822
	C177.298,355.401,177.874,351.411,177.874,351.411z"/>
<linearGradient id="SVGID_8_" gradientUnits="userSpaceOnUse" x1="283.3794" y1="96.4858" x2="257.6669" y2="95.1784" gradientTransform="matrix(1 0 0 -1 -56 534.3369)">
	<stop  offset="0" style="stop-color:#FFEFD8"/>
	<stop  offset="0.4002" style="stop-color:#FFD2A5"/>
	<stop  offset="1" style="stop-color:#FFA85C"/>
</linearGradient>
<path fill="url(#SVGID_8_)" d="M210.391,446.76c0,0,13.399,3.973,15.465,0.283c2.066-3.686,6.541-16.686-1.484-15.375
	c0,0,1.484-3.057-3.914-3.834c-3.02-0.434-4.268,1.756-7.719,2.143l-2.193,15.684L210.391,446.76z"/>
</svg>

